<mxfile host="Electron" modified="2023-07-13T06:54:14.380Z" agent="Mozilla/5.0 (Macintosh; Intel Mac OS X 10_15_7) AppleWebKit/537.36 (KHTML, like Gecko) draw.io/21.6.1 Chrome/112.0.5615.204 Electron/24.6.1 Safari/537.36" etag="3ZYmC0HchB1b1H9xApmy" version="21.6.1" type="device">
  <diagram name="Page-1" id="0TW8hPhlCdOvOFIBEiqw">
    <mxGraphModel dx="1026" dy="689" grid="1" gridSize="10" guides="1" tooltips="1" connect="1" arrows="1" fold="1" page="1" pageScale="1" pageWidth="827" pageHeight="1169" math="0" shadow="0">
      <root>
        <mxCell id="0" />
        <mxCell id="1" parent="0" />
        <mxCell id="CccOO8_uzT506AMxVLRq-1" value="" style="sketch=0;points=[[0,0,0],[0.25,0,0],[0.5,0,0],[0.75,0,0],[1,0,0],[0,1,0],[0.25,1,0],[0.5,1,0],[0.75,1,0],[1,1,0],[0,0.25,0],[0,0.5,0],[0,0.75,0],[1,0.25,0],[1,0.5,0],[1,0.75,0]];outlineConnect=0;fontColor=#232F3E;gradientColor=#F78E04;gradientDirection=north;fillColor=#D05C17;strokeColor=#ffffff;dashed=0;verticalLabelPosition=bottom;verticalAlign=top;align=center;html=1;fontSize=12;fontStyle=0;aspect=fixed;shape=mxgraph.aws4.resourceIcon;resIcon=mxgraph.aws4.lambda;" vertex="1" parent="1">
          <mxGeometry x="200" y="290" width="78" height="78" as="geometry" />
        </mxCell>
        <mxCell id="CccOO8_uzT506AMxVLRq-2" value="" style="outlineConnect=0;dashed=0;verticalLabelPosition=bottom;verticalAlign=top;align=center;html=1;shape=mxgraph.aws3.android;fillColor=#FFD44F;gradientColor=none;" vertex="1" parent="1">
          <mxGeometry x="430" y="290" width="73.5" height="84" as="geometry" />
        </mxCell>
        <mxCell id="CccOO8_uzT506AMxVLRq-3" value="" style="sketch=0;points=[[0,0,0],[0.25,0,0],[0.5,0,0],[0.75,0,0],[1,0,0],[0,1,0],[0.25,1,0],[0.5,1,0],[0.75,1,0],[1,1,0],[0,0.25,0],[0,0.5,0],[0,0.75,0],[1,0.25,0],[1,0.5,0],[1,0.75,0]];outlineConnect=0;fontColor=#232F3E;gradientColor=#F78E04;gradientDirection=north;fillColor=#D05C17;strokeColor=#ffffff;dashed=0;verticalLabelPosition=bottom;verticalAlign=top;align=center;html=1;fontSize=12;fontStyle=0;aspect=fixed;shape=mxgraph.aws4.resourceIcon;resIcon=mxgraph.aws4.ec2;" vertex="1" parent="1">
          <mxGeometry x="650" y="290" width="78" height="78" as="geometry" />
        </mxCell>
        <mxCell id="CccOO8_uzT506AMxVLRq-6" value="" style="sketch=0;points=[[0,0,0],[0.25,0,0],[0.5,0,0],[0.75,0,0],[1,0,0],[0,1,0],[0.25,1,0],[0.5,1,0],[0.75,1,0],[1,1,0],[0,0.25,0],[0,0.5,0],[0,0.75,0],[1,0.25,0],[1,0.5,0],[1,0.75,0]];outlineConnect=0;fontColor=#232F3E;gradientColor=#FF4F8B;gradientDirection=north;fillColor=#BC1356;strokeColor=#ffffff;dashed=0;verticalLabelPosition=bottom;verticalAlign=top;align=center;html=1;fontSize=12;fontStyle=0;aspect=fixed;shape=mxgraph.aws4.resourceIcon;resIcon=mxgraph.aws4.eventbridge;" vertex="1" parent="1">
          <mxGeometry x="200" y="70" width="78" height="78" as="geometry" />
        </mxCell>
        <mxCell id="CccOO8_uzT506AMxVLRq-7" value="" style="endArrow=classic;html=1;rounded=0;exitX=1;exitY=0.5;exitDx=0;exitDy=0;exitPerimeter=0;" edge="1" parent="1" source="CccOO8_uzT506AMxVLRq-1">
          <mxGeometry width="50" height="50" relative="1" as="geometry">
            <mxPoint x="390" y="380" as="sourcePoint" />
            <mxPoint x="420" y="330" as="targetPoint" />
            <Array as="points">
              <mxPoint x="330" y="330" />
            </Array>
          </mxGeometry>
        </mxCell>
        <mxCell id="CccOO8_uzT506AMxVLRq-8" value="" style="endArrow=classic;html=1;rounded=0;exitX=1;exitY=0.5;exitDx=0;exitDy=0;exitPerimeter=0;" edge="1" parent="1">
          <mxGeometry width="50" height="50" relative="1" as="geometry">
            <mxPoint x="501" y="329" as="sourcePoint" />
            <mxPoint x="643" y="330" as="targetPoint" />
            <Array as="points">
              <mxPoint x="553" y="330" />
            </Array>
          </mxGeometry>
        </mxCell>
        <mxCell id="CccOO8_uzT506AMxVLRq-9" value="" style="endArrow=classic;html=1;rounded=0;entryX=0.5;entryY=0;entryDx=0;entryDy=0;entryPerimeter=0;" edge="1" parent="1" target="CccOO8_uzT506AMxVLRq-1">
          <mxGeometry width="50" height="50" relative="1" as="geometry">
            <mxPoint x="240" y="150" as="sourcePoint" />
            <mxPoint x="270" y="180" as="targetPoint" />
          </mxGeometry>
        </mxCell>
        <mxCell id="CccOO8_uzT506AMxVLRq-10" value="" style="endArrow=classic;html=1;rounded=0;" edge="1" parent="1">
          <mxGeometry width="50" height="50" relative="1" as="geometry">
            <mxPoint x="640" y="340" as="sourcePoint" />
            <mxPoint x="510" y="340" as="targetPoint" />
          </mxGeometry>
        </mxCell>
      </root>
    </mxGraphModel>
  </diagram>
</mxfile>
